<svg xmlns="http://www.w3.org/2000/svg" width="125.832" height="166.096" viewBox="0 0 125.832 166.096">
  <g id="diagnostic" transform="translate(-654.49 -420.422)">
    <path id="diagnostic-alt-svgrepo-com" d="M55.231,10.853H73.822a8.879,8.879,0,0,1,8.853,8.853V81.675a8.879,8.879,0,0,1-8.853,8.853H11.853A8.879,8.879,0,0,1,3,81.675V19.706a8.879,8.879,0,0,1,8.853-8.853H30.444a13.1,13.1,0,0,1,24.788,0Zm-7.967,4.426a4.76,4.76,0,0,0-4.426-4.426,4.76,4.76,0,0,0-4.426,4.426,4.76,4.76,0,0,0,4.426,4.426A4.76,4.76,0,0,0,47.264,15.279Zm-5.91,44.462L26.822,28.917,17.417,50.692H11.853v6.64h9.929l5.305-12.283L40.448,73.391l12-18.6,7.441,12.125,7.767-9.583h6.164v-6.64H64.494l-3.852,4.752L52.591,42.325Z" transform="translate(674.569 457.206)" fill="rgba(40,214,28,0.99)" fill-rule="evenodd"/>
    <path id="Path_23" data-name="Path 23" d="M92.6,0H21.267l-3.7.325L15.648.942l-1.233.343-1.782.754-1.028.548L10.577,3.2l-1.919,1.3-1.233,1.3-1.1,1.3L5.5,8.272,4.976,9.2l-.77,1.46-.689,1.622L3.11,13.462l-.324,1.257-.243,1.054L2.3,17.152l-.243,1.419V61.551L2.016,134.5v6.163h0v2.6l.243,1.865.365,1.7.73,2.433.689,1.581,1.014,1.744,1.46,1.865,1.825,1.784,1.865,1.338,2.19,1.176,1.7.811.73.162,1.946.689,1.014.243,1.662.284,1.3.162h82.758l1.7-.2,1.906-.365,2.149-.487,2.068-.73,1.3-.608,1.581-.973,1.135-.689.933-.73,1.257-1.054L118.712,154l1.419-2.068,1.014-1.946.689-1.946.446-1.7.284-1.5.243-2.757V84.542l.041-52.834v-1.46l-4.5-4.42-23.923-24-.689-.568Z" transform="translate(654.974 422.922)" fill="none" stroke="rgba(40,214,28,0.99)" stroke-width="5"/>
  </g>
</svg>
