<svg xmlns="http://www.w3.org/2000/svg" width="125.832" height="166.096" viewBox="0 0 125.832 166.096">
  <g id="dmesgerr" transform="translate(-287.516 -628.952)">
    <path id="Path_21" data-name="Path 21" d="M92.6,0H21.267l-3.7.325L15.648.942l-1.233.343-1.782.754-1.028.548L10.577,3.2l-1.919,1.3-1.233,1.3-1.1,1.3L5.5,8.272,4.976,9.2l-.77,1.46-.689,1.622L3.11,13.462l-.324,1.257-.243,1.054L2.3,17.152l-.243,1.419V61.551L2.016,134.5v6.163h0v2.6l.243,1.865.365,1.7.73,2.433.689,1.581,1.014,1.744,1.46,1.865,1.825,1.784,1.865,1.338,2.19,1.176,1.7.811.73.162,1.946.689,1.014.243,1.662.284,1.3.162h82.758l1.7-.2,1.906-.365,2.149-.487,2.068-.73,1.3-.608,1.581-.973,1.135-.689.933-.73,1.257-1.054L118.712,154l1.419-2.068,1.014-1.946.689-1.946.446-1.7.284-1.5.243-2.757V84.542l.041-52.834v-1.46l-4.5-4.42-23.923-24-.689-.568Z" transform="translate(288 631.452)" fill="none" stroke="#f84d0d" stroke-width="5"/>
    <g id="linux" transform="translate(306 668)">
      <circle id="Ellipse_2" data-name="Ellipse 2" cx="44" cy="44" r="44" fill="#f84d0d"/>
      <path id="linux-svgrepo-com" d="M56.794,46.836a1.443,1.443,0,0,1-.355-1.48,5.15,5.15,0,0,0-5.9-6.668,28.762,28.762,0,0,0-5.433-16.147c-1.027-1.478-1.408-2.336-2.342-3.673a2.792,2.792,0,0,1-.64-2.248A14.469,14.469,0,0,0,40.543,4.728,13.693,13.693,0,0,0,30.04-.307,12.706,12.706,0,0,0,20.03,4.728a14.722,14.722,0,0,0-1.976,11.93c.123.371-.307.512-.731,1.683a15.56,15.56,0,0,1-2.486,4.331,29.338,29.338,0,0,0-6.4,16.016A5.182,5.182,0,0,0,3.543,40.43a4.851,4.851,0,0,0-.936,4.926c.173.533.389,1.094,0,1.48l-1.278.712a4.987,4.987,0,0,0-1.107,4.59,6.977,6.977,0,0,0,3.126,4.569l8.767,3.915a10.4,10.4,0,0,0,4.027.923,10.774,10.774,0,0,0,1.91,0,11.271,11.271,0,0,0,3.454-1.784,25.436,25.436,0,0,0,8.535,1.126,24.678,24.678,0,0,0,8.417-1.126A10.047,10.047,0,0,0,42,60.623a13.37,13.37,0,0,0,2.1.267,9.319,9.319,0,0,0,3.878-.267L56.8,56.707c1.526-.707,2.038-2.667,2.371-4.313a5.868,5.868,0,0,0-1.659-4.849ZM24.519,7.446c1.462-2.046,2.9-1.718,5.409-1.664,2.518-.072,4.041-.395,5.489,1.664A5.969,5.969,0,0,1,36.6,13.629c-.173.56.651,2.451.637,3.035a2.3,2.3,0,0,0-.355-.581,11.106,11.106,0,0,0-6.95-3.467A11.159,11.159,0,0,0,22.98,16.04a2.3,2.3,0,0,0-.355.581,20.969,20.969,0,0,0,.656-3,6.1,6.1,0,0,1,1.238-6.177ZM31.8,17.581l-1.867,1.294L28.069,17.6a9.815,9.815,0,0,1,3.734-.019ZM17.323,56.707a5.113,5.113,0,0,1-3.166-.355l-8.58-3.878a1.443,1.443,0,0,1-.413-2.342l.656-.656a5.19,5.19,0,0,0,1.256-5.3,1.406,1.406,0,0,1,.336-1.48,1.462,1.462,0,0,1,1.011-.432,1.518,1.518,0,0,1,.469,0,5.209,5.209,0,0,0,2.4.187h.112l.581-.131h.131a4.193,4.193,0,0,0,2.043-.8l.741-.709a1.408,1.408,0,0,1,1.243-.48c.461.091.853.107,1.048.533L20.8,49.479a5.62,5.62,0,0,1,.323,3.281A4.7,4.7,0,0,1,17.323,56.707Zm7.756-.88A12.573,12.573,0,0,0,26.146,52.7a8.121,8.121,0,0,0-1.067-5.15l-3.574-8.241a7.22,7.22,0,0,0-3.446-3.534,4.67,4.67,0,0,0-3.9.573A20.507,20.507,0,0,1,18.5,25.766a22.252,22.252,0,0,0,4.123-7.425,5.777,5.777,0,0,0,1.494,1.867l3.939,2.774a6.812,6.812,0,0,0,1.867.864,6.593,6.593,0,0,0,1.867-.864l3.9-2.774a6.934,6.934,0,0,0,1.75-1.867,18.67,18.67,0,0,0,3.515,6.934A21.913,21.913,0,0,1,45.09,36.349a3.224,3.224,0,0,0-2.63-.573,6.55,6.55,0,0,0-4.022,3.534L35.42,47.986a8.409,8.409,0,0,0,0,7.849l-.8.179a19.854,19.854,0,0,1-9.535-.123ZM53.593,52.76,45.76,55.827a4.55,4.55,0,0,1-3,0,3.315,3.315,0,0,1-3.2-3.128,5.673,5.673,0,0,1,.48-3.278L42.775,40.8a1.462,1.462,0,0,1,1.048-.824h.28a1.48,1.48,0,0,1,1.011.413l.656.656c.581.576.7,1.168,1.486,1.406l1.334.243h1.958a1.99,1.99,0,0,1,1.835.232c.4.4-.1,1.9-.291,2.43-.632,1.867.424,2.667,1.814,4.065l.632.773a1.526,1.526,0,0,1,.232,1.374c-.056.477-.741,1.024-1.166,1.248Z" transform="translate(14.348 12.957)" fill="#fff"/>
    </g>
  </g>
</svg>
