<svg xmlns="http://www.w3.org/2000/svg" width="125.832" height="166.096" viewBox="0 0 125.832 166.096">
  <g id="dmesg" transform="translate(-287.516 -217.422)">
    <g id="Component_1_1" data-name="Component 1 – 1" transform="translate(290.016 219.922)">
      <g id="Group_17" data-name="Group 17" transform="translate(-290.016 -219.922)">
        <g id="Group_15" data-name="Group 15" transform="translate(-4.315 -180.911)">
          <path id="message-square-xmark-svgrepo-com" d="M56.434,18.493,19.31,43.474m0-24.981L56.434,43.474M3,66.331l11.319-7.385c.982-.491,1.237-.159,1.751-.332.457-.153,2.763-.008,3.24-.075a20.985,20.985,0,0,1,2.215,0H60.656c4.364,0,6.545,0,8.212-.849a7.79,7.79,0,0,0,3.4-3.4c.849-1.667.849-3.849.849-8.212V16.466c0-4.364,0-6.545-.849-8.212a7.791,7.791,0,0,0-3.4-3.4C67.2,4,65.02,4,60.656,4H15.466C11.1,4,8.921,4,7.254,4.849a7.79,7.79,0,0,0-3.4,3.4C3,9.921,3,12.1,3,16.466Z" transform="translate(315.439 482.431)" fill="none" stroke="#eb1c24" stroke-linecap="round" stroke-linejoin="round" stroke-width="11"/>
          <text id="DMESG_ERROR" data-name="DMESG 
ERROR" transform="translate(353.5 437)" fill="rgba(67,63,63,0.99)" font-size="26" font-family="Poppins-Bold, Poppins" font-weight="700"><tspan x="-49.075" y="0">DMESG </tspan><tspan x="-42.679" y="25">ERROR</tspan></text>
        </g>
        <g id="drivermissing" transform="translate(288 219.922)">
          <g id="Path_10" data-name="Path 10" transform="translate(74.637 67.066)" fill="#777a7c">
            <path d="M12.975,3h0Z" stroke="none"/>
            <path d="M -9.5367431640625e-07 3 L 12.97527885437012 3 L -9.5367431640625e-07 3 Z" stroke="none" fill="#eb1c24"/>
          </g>
          <path id="Path_6" data-name="Path 6" d="M92.6,0H21.267l-3.7.325L15.648.942l-1.233.343-1.782.754-1.028.548L10.577,3.2l-1.919,1.3-1.233,1.3-1.1,1.3L5.5,8.272,4.976,9.2l-.77,1.46-.689,1.622L3.11,13.462l-.324,1.257-.243,1.054L2.3,17.152l-.243,1.419V61.551L2.016,134.5v6.163h0v2.6l.243,1.865.365,1.7.73,2.433.689,1.581,1.014,1.744,1.46,1.865,1.825,1.784,1.865,1.338,2.19,1.176,1.7.811.73.162,1.946.689,1.014.243,1.662.284,1.3.162h82.758l1.7-.2,1.906-.365,2.149-.487,2.068-.73,1.3-.608,1.581-.973,1.135-.689.933-.73,1.257-1.054L118.712,154l1.419-2.068,1.014-1.946.689-1.946.446-1.7.284-1.5.243-2.757V84.542l.041-52.834v-1.46l-4.5-4.42-23.923-24-.689-.568Z" fill="none" stroke="#eb1c24" stroke-width="5"/>
        </g>
      </g>
    </g>
  </g>
</svg>
