<svg xmlns="http://www.w3.org/2000/svg" width="125.832" height="166.096" viewBox="0 0 125.832 166.096">
  <g id="Component_1_1" data-name="Component 1 – 1" transform="translate(2.5 2.5)">
    <g id="Group_17" data-name="Group 17" transform="translate(-290.016 -219.922)">
      <g id="Group_15" data-name="Group 15" transform="translate(-4.315 -182.911)">
        <path id="message-square-xmark-svgrepo-com" d="M64.094,25.9,34.481,51.434m0-25.53,29.613,25.53M3,85.789,17.852,76.1c1.288-.644,1.623-.208,2.3-.435.6-.2,3.626-.011,4.252-.1a27.535,27.535,0,0,1,2.907,0H78.655c5.726,0,8.589,0,10.776-1.114A10.222,10.222,0,0,0,93.9,69.983c1.114-2.187,1.114-5.05,1.114-10.776V20.358c0-5.726,0-8.589-1.114-10.776A10.223,10.223,0,0,0,89.43,5.114C87.243,4,84.38,4,78.655,4h-59.3C13.632,4,10.769,4,8.582,5.114A10.222,10.222,0,0,0,4.114,9.582C3,11.769,3,14.632,3,20.358Z" transform="translate(305.494 449.973)" fill="none" stroke="#eb1c24" stroke-linecap="round" stroke-linejoin="round" stroke-width="11"/>
        <text id="DMESG_ERROR" data-name="DMESG ERROR" transform="translate(309 445)" fill="rgba(67,63,63,0.99)" font-size="13" font-family="Poppins-Bold, Poppins" font-weight="700"><tspan x="0" y="0">DMESG ERROR</tspan></text>
      </g>
      <g id="drivermissing" transform="translate(288 219.922)">
        <g id="Path_10" data-name="Path 10" transform="translate(74.637 67.066)" fill="#777a7c">
          <path d="M12.975,3h0Z" stroke="none"/>
          <path d="M -9.5367431640625e-07 3 L 12.97527885437012 3 L -9.5367431640625e-07 3 Z" stroke="none" fill="#eb1c24"/>
        </g>
        <path id="Path_6" data-name="Path 6" d="M92.6,0H21.267l-3.7.325L15.648.942l-1.233.343-1.782.754-1.028.548L10.577,3.2l-1.919,1.3-1.233,1.3-1.1,1.3L5.5,8.272,4.976,9.2l-.77,1.46-.689,1.622L3.11,13.462l-.324,1.257-.243,1.054L2.3,17.152l-.243,1.419V61.551L2.016,134.5v6.163h0v2.6l.243,1.865.365,1.7.73,2.433.689,1.581,1.014,1.744,1.46,1.865,1.825,1.784,1.865,1.338,2.19,1.176,1.7.811.73.162,1.946.689,1.014.243,1.662.284,1.3.162h82.758l1.7-.2,1.906-.365,2.149-.487,2.068-.73,1.3-.608,1.581-.973,1.135-.689.933-.73,1.257-1.054L118.712,154l1.419-2.068,1.014-1.946.689-1.946.446-1.7.284-1.5.243-2.757V84.542l.041-52.834v-1.46l-4.5-4.42-23.923-24-.689-.568Z" fill="none" stroke="#eb1c24" stroke-width="5"/>
      </g>
    </g>
  </g>
</svg>
