<svg xmlns="http://www.w3.org/2000/svg" width="125.832" height="166.096" viewBox="0 0 125.832 166.096">
  <g id="driver_missing" transform="translate(-125.165 -217.422)">
    <g id="drivermissing" transform="translate(125.65 219.922)">
      <g id="Path_10" data-name="Path 10" transform="translate(74.637 67.066)" fill="#777a7c">
        <path d="M12.975,3h0Z" stroke="none"/>
        <path d="M -9.5367431640625e-07 3 L 12.97527885437012 3 L -9.5367431640625e-07 3 Z" stroke="none" fill="#eb1c24"/>
      </g>
      <path id="Path_6" data-name="Path 6" d="M92.6,0H21.267l-3.7.325L15.648.942l-1.233.343-1.782.754-1.028.548L10.577,3.2l-1.919,1.3-1.233,1.3-1.1,1.3L5.5,8.272,4.976,9.2l-.77,1.46-.689,1.622L3.11,13.462l-.324,1.257-.243,1.054L2.3,17.152l-.243,1.419V61.551L2.016,134.5v6.163h0v2.6l.243,1.865.365,1.7.73,2.433.689,1.581,1.014,1.744,1.46,1.865,1.825,1.784,1.865,1.338,2.19,1.176,1.7.811.73.162,1.946.689,1.014.243,1.662.284,1.3.162h82.758l1.7-.2,1.906-.365,2.149-.487,2.068-.73,1.3-.608,1.581-.973,1.135-.689.933-.73,1.257-1.054L118.712,154l1.419-2.068,1.014-1.946.689-1.946.446-1.7.284-1.5.243-2.757V84.542l.041-52.834v-1.46l-4.5-4.42-23.923-24-.689-.568Z" fill="none" stroke="#eb1c24" stroke-width="5"/>
    </g>
    <g id="Group_18" data-name="Group 18" transform="translate(7.94 15.293)">
      <g id="Group_9" data-name="Group 9" transform="translate(166.518 289.969)">
        <path id="Path_13" data-name="Path 13" d="M216.074,49.951l7.359,11.038h36.236V49.951Z" transform="translate(-216.074 -49.951)" fill="rgba(159,159,159,0.62)"/>
      </g>
      <g id="Group_11" data-name="Group 11" transform="translate(134.686 289.969)">
        <path id="Path_14" data-name="Path 14" d="M36.236,66.509,25.2,49.952H0v60.709H75.426V66.509Zm11.6,21.156a10.1,10.1,0,0,1-.308,2.478l2.722,1.571-2.76,4.779-2.728-1.575A10.121,10.121,0,0,1,40.473,97.4v3.145H34.954V97.4a10.118,10.118,0,0,1-4.285-2.479L27.94,96.494l-2.76-4.779L27.9,90.143a10.128,10.128,0,0,1,0-4.955l-2.722-1.571,2.76-4.779,2.728,1.575a10.12,10.12,0,0,1,4.285-2.479V74.787h5.519v3.145a10.118,10.118,0,0,1,4.285,2.479l2.728-1.575,2.76,4.779-2.722,1.571A10.112,10.112,0,0,1,47.831,87.665Z" transform="translate(0 -49.952)" fill="rgba(159,159,159,0.62)"/>
      </g>
      <g id="Group_13" data-name="Group 13" transform="translate(166.771 321.891)">
        <path id="Path_15" data-name="Path 15" d="M230.409,274.732a5.628,5.628,0,1,0,5.628,5.629A5.635,5.635,0,0,0,230.409,274.732Z" transform="translate(-224.781 -274.732)" fill="rgba(159,159,159,0.62)"/>
      </g>
    </g>
    <path id="Path_16" data-name="Path 16" d="M28.659,4.078a23.412,23.412,0,0,0-10,1.566A22.151,22.151,0,0,0,5,26.082H19.759a7.371,7.371,0,1,1,7.38,7.38,7.394,7.394,0,0,0-7.38,7.38V55.6H34.518V46.895a22.084,22.084,0,0,0,8.273-36.466,23.935,23.935,0,0,0-14-6.351c.042,0,2.763.157-.134,0Zm-1.52,56.836a7.461,7.461,0,0,0-7.38,7.457,7.586,7.586,0,0,0,7.38,7.6,7.586,7.586,0,0,0,7.38-7.6A7.461,7.461,0,0,0,27.139,60.914Zm0,0" transform="translate(183.657 295.294)" fill="#eb1c24" stroke="#eb1c24" stroke-width="1"/>
    <text id="DRIVERS_MISSING" data-name="DRIVERS 
MISSING" transform="translate(189.081 267.139)" fill="rgba(67,63,63,0.99)" font-size="26" font-family="Poppins-Bold, Poppins" font-weight="700"><tspan x="-57.512" y="0">DRIVERS </tspan><tspan x="-55.276" y="25">MISSING</tspan></text>
  </g>
</svg>
