<svg xmlns="http://www.w3.org/2000/svg" width="125.832" height="166.096" viewBox="0 0 125.832 166.096">
  <g id="Group_19" data-name="Group 19" transform="translate(-125.165 -618.422)">
    <path id="Path_18" data-name="Path 18" d="M92.6,0H21.267l-3.7.325L15.648.942l-1.233.343-1.782.754-1.028.548L10.577,3.2l-1.919,1.3-1.233,1.3-1.1,1.3L5.5,8.272,4.976,9.2l-.77,1.46-.689,1.622L3.11,13.462l-.324,1.257-.243,1.054L2.3,17.152l-.243,1.419V61.551L2.016,134.5v6.163h0v2.6l.243,1.865.365,1.7.73,2.433.689,1.581,1.014,1.744,1.46,1.865,1.825,1.784,1.865,1.338,2.19,1.176,1.7.811.73.162,1.946.689,1.014.243,1.662.284,1.3.162h82.758l1.7-.2,1.906-.365,2.149-.487,2.068-.73,1.3-.608,1.581-.973,1.135-.689.933-.73,1.257-1.054L118.712,154l1.419-2.068,1.014-1.946.689-1.946.446-1.7.284-1.5.243-2.757V84.542l.041-52.834v-1.46l-4.5-4.42-23.923-24-.689-.568Z" transform="translate(125.65 620.922)" fill="none" stroke="#eb1c24" stroke-width="5"/>
    <g id="failed" transform="translate(144.636 657.525)">
      <path id="Path_3" data-name="Path 3" d="M0,43.445A43.445,43.445,0,1,1,43.445,86.891,43.445,43.445,0,0,1,0,43.445Z" fill="#eb1c24" fill-rule="evenodd"/>
      <path id="Path_4" data-name="Path 4" d="M75.677,38.338A37.339,37.339,0,1,0,38.338,75.677,37.339,37.339,0,0,0,75.677,38.338Z" transform="translate(5.107 5.107)" fill="#eb1c24" fill-rule="evenodd"/>
      <path id="Path_5" data-name="Path 5" d="M24.611,16.364,13.4,5.159a2.319,2.319,0,0,0-3.3.032L5.191,10.1a2.352,2.352,0,0,0-.032,3.3l11.2,11.206L5.159,35.816a2.32,2.32,0,0,0,.032,3.3L10.1,44.031a2.344,2.344,0,0,0,3.3.032l11.206-11.2,11.206,11.2a2.32,2.32,0,0,0,3.3-.032l4.911-4.911a2.351,2.351,0,0,0,.032-3.3l-11.2-11.206L44.063,13.4a2.319,2.319,0,0,0-.032-3.3L39.12,5.191a2.352,2.352,0,0,0-3.3-.032l-11.206,11.2Z" transform="translate(18.835 18.835)" fill="#fff" fill-rule="evenodd"/>
    </g>
  </g>
</svg>
