<svg id="linux" xmlns="http://www.w3.org/2000/svg" width="33" height="33" viewBox="0 0 33 33">
  <circle id="Ellipse_2" data-name="Ellipse 2" cx="16.5" cy="16.5" r="16.5" fill="#f84d0d"/>
  <path id="linux-svgrepo-com" d="M21.331,17.369a.541.541,0,0,1-.133-.555,1.931,1.931,0,0,0-2.212-2.5,10.784,10.784,0,0,0-2.037-6.054c-.385-.554-.528-.876-.878-1.377a1.047,1.047,0,0,1-.24-.843,5.425,5.425,0,0,0-.593-4.459A5.134,5.134,0,0,0,11.3-.307,4.764,4.764,0,0,0,7.547,1.581a5.52,5.52,0,0,0-.741,4.473c.046.139-.115.192-.274.631A5.834,5.834,0,0,1,5.6,8.309,11,11,0,0,0,3.2,14.314a1.943,1.943,0,0,0-1.835.653,1.819,1.819,0,0,0-.351,1.847c.065.2.146.41,0,.555l-.479.267A1.87,1.87,0,0,0,.12,19.357,2.616,2.616,0,0,0,1.292,21.07l3.287,1.468a3.9,3.9,0,0,0,1.51.346,4.039,4.039,0,0,0,.716,0A4.226,4.226,0,0,0,8.1,22.215a9.537,9.537,0,0,0,3.2.422,9.253,9.253,0,0,0,3.156-.422,3.767,3.767,0,0,0,1.328.323,5.013,5.013,0,0,0,.786.1,3.494,3.494,0,0,0,1.454-.1l3.308-1.468c.572-.265.764-1,.889-1.617a2.2,2.2,0,0,0-.622-1.818ZM9.23,2.6c.548-.767,1.086-.644,2.028-.624.944-.027,1.515-.148,2.058.624a2.238,2.238,0,0,1,.442,2.318c-.065.21.244.919.239,1.138a.864.864,0,0,0-.133-.218,4.164,4.164,0,0,0-2.606-1.3A4.184,4.184,0,0,0,8.653,5.822a.864.864,0,0,0-.133.218,7.862,7.862,0,0,0,.246-1.124A2.289,2.289,0,0,1,9.23,2.6Zm2.731,3.8-.7.485-.7-.478a3.68,3.68,0,0,1,1.4-.007ZM6.532,21.07a1.917,1.917,0,0,1-1.187-.133L2.128,19.483a.541.541,0,0,1-.155-.878l.246-.246a1.946,1.946,0,0,0,.471-1.988.527.527,0,0,1,.126-.555.548.548,0,0,1,.379-.162.569.569,0,0,1,.176,0,1.953,1.953,0,0,0,.9.07h.042l.218-.049h.049c.294-.087.548-.086.766-.3l.278-.266a.528.528,0,0,1,.466-.18c.173.034.32.04.393.2l1.354,3.231a2.107,2.107,0,0,1,.121,1.23A1.763,1.763,0,0,1,6.532,21.07Zm2.908-.33a4.714,4.714,0,0,0,.4-1.173,3.045,3.045,0,0,0-.4-1.931L8.1,14.546a2.707,2.707,0,0,0-1.292-1.325,1.751,1.751,0,0,0-1.461.215A7.689,7.689,0,0,1,6.974,9.469,8.343,8.343,0,0,0,8.52,6.685a2.166,2.166,0,0,0,.56.7l1.477,1.04a2.554,2.554,0,0,0,.7.324,2.472,2.472,0,0,0,.7-.324l1.462-1.04a2.6,2.6,0,0,0,.656-.7,7,7,0,0,0,1.318,2.6,8.216,8.216,0,0,1,1.55,4.152,1.209,1.209,0,0,0-.986-.215,2.456,2.456,0,0,0-1.508,1.325L13.317,17.8a3.153,3.153,0,0,0,0,2.943l-.3.067a7.444,7.444,0,0,1-3.575-.046ZM20.131,19.59,17.194,20.74a1.706,1.706,0,0,1-1.124,0,1.243,1.243,0,0,1-1.2-1.173,2.127,2.127,0,0,1,.18-1.229l1.025-3.231a.548.548,0,0,1,.393-.309h.105a.555.555,0,0,1,.379.155l.246.246c.218.216.264.438.557.527l.5.091h.734a.746.746,0,0,1,.688.087c.151.151-.036.711-.109.911-.237.7.159,1,.68,1.524l.237.29a.572.572,0,0,1,.087.515c-.021.179-.278.384-.437.468Z" transform="translate(5.343 5.05)" fill="#fff"/>
</svg>
