<?xml version="1.0" encoding="UTF-8"?>
<svg id="Layer_2" data-name="Layer 2" xmlns="http://www.w3.org/2000/svg" viewBox="0 0 497.88 250.4">
  <defs>
    <style>
      .cls-1, .cls-2 {
        fill: #3e3e3e;
      }

      .cls-3 {
        fill: #fff;
        stroke: #3e3e3e;
        stroke-miterlimit: 10;
        stroke-width: 9px;
      }

      .cls-2 {
        font-family: Poppins-Bold, Poppins;
        font-size: 42px;
        font-weight: 700;
        letter-spacing: .08em;
      }
    </style>
  </defs>
  <g id="Layer_1-2" data-name="Layer 1">
    <g>
      <circle class="cls-1" cx="130.96" cy="149.13" r="41.68"/>
      <circle class="cls-1" cx="279.62" cy="34.05" r="34.05"/>
      <circle class="cls-1" cx="214.28" cy="97.35" r="22.3"/>
      <circle class="cls-1" cx="209.58" cy="185.57" r="17.6"/>
      <circle class="cls-1" cx="294.96" cy="217.48" r="22.17"/>
      <line class="cls-3" x1="128.69" y1="155.15" x2="285.69" y2="34.05"/>
      <line class="cls-3" x1="303.82" y1="232.18" x2="110.46" y2="138.97"/>
      <path class="cls-1" d="m199.44,205.56c-21.58,36.16-68.57,52.03-109.26,41.79-32.77-7.71-61.3-30.34-76.78-60.29C-19.08,124.22,9.37,47.72,78.39,26.98c17.06-5.1,35.35-6.34,52.83-3.81,23.23,3.25,45.31,13.86,61.37,29.95,7.16,7.17,7.15,18.8-.02,25.96-5.9,5.89-14.81,6.93-21.77,3.12-26.9-16.15-59.27-21.96-87.23-5.85-21.7,12.53-37.1,35.67-39.12,60.8-4.5,61.89,59.28,107.32,117.67,88.36,8.75-2.81,17.08-6.92,24.7-12.23,3.86-2.69,7.5-5.74,11.06-8.99.77-.81,2.19.27,1.56,1.26h0Z"/>
      <text class="cls-2" transform="translate(184.98 158.42)"><tspan x="0" y="0">NSTELLATION</tspan></text>
    </g>
  </g>
</svg>