<svg xmlns="http://www.w3.org/2000/svg" width="125.832" height="166.096" viewBox="0 0 125.832 166.096">
  <g id="Group_18" data-name="Group 18" transform="translate(-125.165 -420.422)">
    <path id="pass" d="M107.445,142.891a42.158,42.158,0,0,1-21.723-5.865,43.811,43.811,0,0,1-15.858-15.858,43.16,43.16,0,0,1,0-43.445A43.811,43.811,0,0,1,85.723,61.865a43.16,43.16,0,0,1,43.445,0,43.811,43.811,0,0,1,15.858,15.858,43.16,43.16,0,0,1,0,43.445,43.811,43.811,0,0,1-15.858,15.858A42.158,42.158,0,0,1,107.445,142.891Zm28.289-53.642-.184-.387-6.249-5-.706-.248h-.516l-.557.248-2.784,3.444L105.7,110.065,89.815,96.732l-6.387,7.105,24.017,20.19,28.189-34.167Z" transform="translate(80.746 402.525)" fill="#8dc63f"/>
    <path id="Path_6" data-name="Path 6" d="M92.6,0H21.267l-3.7.325L15.648.942l-1.233.343-1.782.754-1.028.548L10.577,3.2l-1.919,1.3-1.233,1.3-1.1,1.3L5.5,8.272,4.976,9.2l-.77,1.46-.689,1.622L3.11,13.462l-.324,1.257-.243,1.054L2.3,17.152l-.243,1.419V61.551L2.016,134.5v6.163h0v2.6l.243,1.865.365,1.7.73,2.433.689,1.581,1.014,1.744,1.46,1.865,1.825,1.784,1.865,1.338,2.19,1.176,1.7.811.73.162,1.946.689,1.014.243,1.662.284,1.3.162h82.758l1.7-.2,1.906-.365,2.149-.487,2.068-.73,1.3-.608,1.581-.973,1.135-.689.933-.73,1.257-1.054L118.712,154l1.419-2.068,1.014-1.946.689-1.946.446-1.7.284-1.5.243-2.757V84.542l.041-52.834v-1.46l-4.5-4.42-23.923-24-.689-.568Z" transform="translate(125.65 422.922)" fill="none" stroke="#8dc63f" stroke-width="5"/>
  </g>
</svg>
