<svg xmlns="http://www.w3.org/2000/svg" width="125.832" height="166.096" viewBox="0 0 125.832 166.096">
  <g id="pytestFailed" transform="translate(-113.084 -629.422)">
    <path id="Path_20" data-name="Path 20" d="M92.6,0H21.267l-3.7.325L15.648.942l-1.233.343-1.782.754-1.028.548L10.577,3.2l-1.919,1.3-1.233,1.3-1.1,1.3L5.5,8.272,4.976,9.2l-.77,1.46-.689,1.622L3.11,13.462l-.324,1.257-.243,1.054L2.3,17.152l-.243,1.419V61.551L2.016,134.5v6.163h0v2.6l.243,1.865.365,1.7.73,2.433.689,1.581,1.014,1.744,1.46,1.865,1.825,1.784,1.865,1.338,2.19,1.176,1.7.811.73.162,1.946.689,1.014.243,1.662.284,1.3.162h82.758l1.7-.2,1.906-.365,2.149-.487,2.068-.73,1.3-.608,1.581-.973,1.135-.689.933-.73,1.257-1.054L118.712,154l1.419-2.068,1.014-1.946.689-1.946.446-1.7.284-1.5.243-2.757V84.542l.041-52.834v-1.46l-4.5-4.42-23.923-24-.689-.568Z" transform="translate(113.568 631.922)" fill="none" stroke="#aa3400" stroke-width="5"/>
    <g id="python" transform="translate(132 668)">
      <circle id="Ellipse_3" data-name="Ellipse 3" cx="44" cy="44" r="44" fill="#aa3400"/>
      <path id="python-16-svgrepo-com" d="M22.286,5.815H37.359a.965.965,0,0,1,.984.954V26.875a.973.973,0,0,1-.984.954h-12.9a6.782,6.782,0,0,0-6.886,6.677v4.5a.973.973,0,0,1-.986.943h-9.6A.973.973,0,0,1,6,39V23.679a.973.973,0,0,1,.984-.954H30.825a2.86,2.86,0,0,0,0-5.72H21.3V6.791a.973.973,0,0,1,.986-.976Zm21.96,10.05v-9.1A6.779,6.779,0,0,0,37.359.1H22.286A6.782,6.782,0,0,0,15.4,6.769V16.983H6.989A6.779,6.779,0,0,0,.1,23.657V38.978A6.779,6.779,0,0,0,6.986,45.66h9.59a7.467,7.467,0,0,0,.984-.067v9.1a6.779,6.779,0,0,0,6.886,6.669H39.521a6.782,6.782,0,0,0,6.889-6.669V44.475h8.408a6.782,6.782,0,0,0,6.889-6.669V22.464A6.779,6.779,0,0,0,54.817,15.8H45.232a6.914,6.914,0,0,0-.986.067ZM23.463,39.026V34.583a.973.973,0,0,1,.984-.954h12.9a6.779,6.779,0,0,0,6.886-6.669v-4.5a.973.973,0,0,1,.986-.943h9.585a.97.97,0,0,1,.986.954V37.787a.973.973,0,0,1-.984.954H30.981a2.86,2.86,0,0,0,0,5.72H40.5V54.675a.973.973,0,0,1-.986.954H24.447a.973.973,0,0,1-.984-.954Z" transform="translate(13.447 13.621)" fill="#fff"/>
    </g>
  </g>
</svg>
