<svg id="python" xmlns="http://www.w3.org/2000/svg" width="33" height="33" viewBox="0 0 33 33">
  <circle id="Ellipse_3" data-name="Ellipse 3" cx="16.5" cy="16.5" r="16.5" fill="#aa3400"/>
  <path id="python-16-svgrepo-com" d="M8.354,2.226h5.608a.359.359,0,0,1,.366.355v7.48a.362.362,0,0,1-.366.355h-4.8A2.523,2.523,0,0,0,6.6,12.9v1.676a.362.362,0,0,1-.367.351H2.663a.362.362,0,0,1-.367-.355v-5.7a.362.362,0,0,1,.366-.355h8.869a1.064,1.064,0,1,0,0-2.128H7.987v-3.8A.362.362,0,0,1,8.354,2.226Zm8.17,3.739V2.581A2.522,2.522,0,0,0,13.962.1H8.354A2.523,2.523,0,0,0,5.791,2.581v3.8H2.663A2.522,2.522,0,0,0,.1,8.864v5.7A2.522,2.522,0,0,0,2.662,17.05H6.23a2.778,2.778,0,0,0,.366-.025v3.384A2.522,2.522,0,0,0,9.158,22.89h5.608a2.523,2.523,0,0,0,2.563-2.481v-3.8h3.128a2.523,2.523,0,0,0,2.563-2.481V8.42a2.522,2.522,0,0,0-2.563-2.481H16.891a2.572,2.572,0,0,0-.367.025ZM8.792,14.582V12.929a.362.362,0,0,1,.366-.355h4.8a2.522,2.522,0,0,0,2.562-2.481V8.417a.362.362,0,0,1,.367-.351h3.566a.361.361,0,0,1,.367.355v5.7a.362.362,0,0,1-.366.355H11.589a1.064,1.064,0,1,0,0,2.128h3.542v3.8a.362.362,0,0,1-.367.355H9.158a.362.362,0,0,1-.366-.355Z" transform="translate(4.94 5.005)" fill="#fff"/>
</svg>
