<svg xmlns="http://www.w3.org/2000/svg" width="54.304" height="54.292" viewBox="0 0 54.304 54.292">
  <g id="thumbs-down" transform="translate(-0.5 -1.5)">
    <path id="Path_24" data-name="Path 24" d="M18.575,53.141a3.693,3.693,0,0,0,3.353,2.151c3.009,0,5.383-.869,6.638-3.131a7.722,7.722,0,0,0,.856-2.967,26.3,26.3,0,0,0,.094-2.692V38.336h7.591a7.254,7.254,0,0,0,7.143-8.369l-3.326-21.8A7.239,7.239,0,0,0,33.782,2H8V33.491h.914Z" transform="translate(9.957)" fill="#777a7c" stroke="#707070" stroke-width="1"/>
    <path id="Path_25" data-name="Path 25" d="M13.112,33.491H8.226A7.247,7.247,0,0,1,1,26.224V9.267A7.247,7.247,0,0,1,8.226,2h4.885Z" fill="#777a7c" stroke="#707070" stroke-width="1"/>
  </g>
</svg>
