<svg xmlns="http://www.w3.org/2000/svg" width="54.304" height="54.292" viewBox="0 0 54.304 54.292">
  <g id="thumbs-up" transform="translate(-0.5 0.5)">
    <path id="Path_26" data-name="Path 26" d="M18.575,2.151A3.693,3.693,0,0,1,21.929,0c3.009,0,5.383.869,6.638,3.131A7.721,7.721,0,0,1,29.423,6.1a26.3,26.3,0,0,1,.094,2.692v8.167h7.591a7.254,7.254,0,0,1,7.143,8.369l-3.326,21.8a7.239,7.239,0,0,1-7.143,6.165H8V21.8h.914Z" transform="translate(9.957)" fill="#ffc20e" stroke="#707070" stroke-width="1"/>
    <path id="Path_27" data-name="Path 27" d="M13.112,9H8.226A7.247,7.247,0,0,0,1,16.267V33.224a7.247,7.247,0,0,0,7.226,7.267h4.885Z" transform="translate(0 12.801)" fill="#ffc20e" stroke="#707070" stroke-width="1"/>
  </g>
</svg>
