<svg xmlns="http://www.w3.org/2000/svg" width="125.832" height="166.096" viewBox="0 0 125.832 166.096">
  <g id="uart" transform="translate(-453.735 -420.422)">
    <path id="Path_22" data-name="Path 22" d="M92.6,0H21.267l-3.7.325L15.648.942l-1.233.343-1.782.754-1.028.548L10.577,3.2l-1.919,1.3-1.233,1.3-1.1,1.3L5.5,8.272,4.976,9.2l-.77,1.46-.689,1.622L3.11,13.462l-.324,1.257-.243,1.054L2.3,17.152l-.243,1.419V61.551L2.016,134.5v6.163h0v2.6l.243,1.865.365,1.7.73,2.433.689,1.581,1.014,1.744,1.46,1.865,1.825,1.784,1.865,1.338,2.19,1.176,1.7.811.73.162,1.946.689,1.014.243,1.662.284,1.3.162h82.758l1.7-.2,1.906-.365,2.149-.487,2.068-.73,1.3-.608,1.581-.973,1.135-.689.933-.73,1.257-1.054L118.712,154l1.419-2.068,1.014-1.946.689-1.946.446-1.7.284-1.5.243-2.757V84.542l.041-52.834v-1.46l-4.5-4.42-23.923-24-.689-.568Z" transform="translate(454.219 422.922)" fill="none" stroke="#1574d4" stroke-width="5"/>
    <path id="logs-svgrepo-com" d="M0,60.863a5.131,5.131,0,0,0,1.461,3.652,4.572,4.572,0,0,0,3.652,1.461h5.031A14.437,14.437,0,0,0,14.61,76.688,15.135,15.135,0,0,0,25.4,81.151H42.363A28.117,28.117,0,0,1,33.6,71.007H25.4a5.131,5.131,0,0,1-3.652-1.461,4.476,4.476,0,0,1-1.461-3.571V15.256a4.857,4.857,0,0,1,1.461-3.571A5.245,5.245,0,0,1,25.4,10.144H65.978a4.9,4.9,0,0,1,3.571,1.542,4.621,4.621,0,0,1,1.461,3.571V33.6a28.117,28.117,0,0,1,10.144,8.764v-27.1A14.7,14.7,0,0,0,76.69,4.463,14.609,14.609,0,0,0,65.978,0H25.4A14.7,14.7,0,0,0,14.61,4.463a14.7,14.7,0,0,0-4.463,10.793H5.115a5.131,5.131,0,0,0-3.652,1.461A4.476,4.476,0,0,0,0,20.288,5.637,5.637,0,0,0,1.463,23.94,4.434,4.434,0,0,0,5.115,25.4h5.031V35.544H5.115A5.131,5.131,0,0,0,1.463,37,4.476,4.476,0,0,0,0,40.575a5.637,5.637,0,0,0,1.461,3.652,4.434,4.434,0,0,0,3.652,1.461h5.031V55.832H5.115a5.131,5.131,0,0,0-3.652,1.461A4.476,4.476,0,0,0,0,60.863Zm25.4,0h5.275q0-.162-.081-1.055t-.162-1.461a3.286,3.286,0,0,1,.162-1.38,1.715,1.715,0,0,0,.081-1.136H25.4v5.031Zm0-10.144h6.249A23.171,23.171,0,0,1,33.6,45.688H25.4v5.031Zm0-10.144h11.6a25.8,25.8,0,0,1,5.356-5.031H25.4v5.031Zm0-10.144H65.978V25.4H25.4v5.031Zm0-10.144H65.978V15.256H25.4v5.031Zm10.144,38.06a22.473,22.473,0,0,0,1.785,8.845A22.379,22.379,0,0,0,49.5,79.366a22.805,22.805,0,0,0,17.691,0A22.379,22.379,0,0,0,79.368,67.193a22.805,22.805,0,0,0,0-17.691A22.379,22.379,0,0,0,67.2,37.329a22.805,22.805,0,0,0-17.691,0A22.379,22.379,0,0,0,37.332,49.5,22.473,22.473,0,0,0,35.547,58.348Zm10.144,0a12.143,12.143,0,0,1,3.652-8.927,12.524,12.524,0,0,1,9.008-3.733,11.465,11.465,0,0,1,8.927,3.733,13.3,13.3,0,0,1,3.733,8.927,12.009,12.009,0,0,1-3.733,8.927,12.616,12.616,0,0,1-8.927,3.733,12.034,12.034,0,0,1-9.008-3.733A11.667,11.667,0,0,1,45.69,58.348Zm10.144,0a2.494,2.494,0,0,0,2.516,2.516h5.031a2.429,2.429,0,0,0,1.785-.73,2.742,2.742,0,0,0,.812-1.785,2.01,2.01,0,0,0-.812-1.785,2.823,2.823,0,0,0-1.785-.73H60.866V53.316a2.429,2.429,0,0,0-.73-1.785,2.742,2.742,0,0,0-1.785-.812,2.01,2.01,0,0,0-1.785.812,2.823,2.823,0,0,0-.73,1.785v5.031Z" transform="translate(476.075 462.894)" fill="#1574d4"/>
  </g>
</svg>
